<svg xmlns="http://www.w3.org/2000/svg" xmlns:xlink="http://www.w3.org/1999/xlink" viewBox="0 0 502 800"><defs><style>.cls-1{fill:#2fafd1;}.cls-2{fill:#367c09;}</style><image id="image" width="63" height="179" xlink:href="../../Prefabs/Elka.png"/><image id="image-2" width="70" height="131" xlink:href="../1x/Tree1.png"/></defs><title>bacground_menu</title><g id="Слой_2" data-name="Слой 2"><g id="Слой_1-2" data-name="Слой 1"><rect class="cls-1" x="12" width="480" height="800"/><rect class="cls-2" x="12" y="610" width="480" height="190"/><image width="131" height="75" transform="translate(19 665) scale(1.08 1.08)" xlink:href="../1x/Bench.png"/><use transform="translate(10 491)" xlink:href="#image-2"/><use transform="translate(90 443)" xlink:href="#image"/><use transform="translate(144 443)" xlink:href="#image"/><use transform="translate(45 497)" xlink:href="#image-2"/><use transform="translate(314 480)" xlink:href="#image-2"/><use transform="translate(217 491)" xlink:href="#image-2"/><use transform="translate(70 519) scale(0.87 0.76)" xlink:href="#image-2"/><use transform="translate(193 510) scale(0.63 0.81)" xlink:href="#image-2"/><use transform="translate(271 456)" xlink:href="#image"/><use transform="translate(117 456)" xlink:href="#image"/><use transform="translate(0 525)" xlink:href="#image-2"/><use transform="translate(187 477) scale(1.51 1.4)" xlink:href="#image-2"/><use transform="translate(432 497)" xlink:href="#image-2"/><use transform="translate(365 491)" xlink:href="#image-2"/><use transform="translate(144 476)" xlink:href="#image"/><use transform="translate(349 467)" xlink:href="#image"/><image width="106" height="199" transform="matrix(-0.79, 0, 0, 0.83, 464, 582)" xlink:href="../1x/Player.png"/></g></g></svg>